<?xml version="1.0" encoding="UTF-8"?>
<svg width="48px" height="48px" viewBox="0 0 48 48" version="1.1" xmlns="http://www.w3.org/2000/svg" xmlns:xlink="http://www.w3.org/1999/xlink">
    <!-- Generator: Sketch 52.3 (67297) - http://www.bohemiancoding.com/sketch -->
    <title>icons / general / student</title>
    <desc>Created with Sketch.</desc>
    <g id="icons-/-general-/-student" stroke="none" stroke-width="1" fill="none" fill-rule="evenodd">
        <g transform="translate(5.000000, 0.000000)" fill-rule="nonzero">
            <path d="M28.9655625,10.5044898 L19.310375,10.5044898 L9.6551875,10.5044898 C8.689625,11.4653605 8.47240625,14.4377687 8.72648438,16.0176327 L9.38492188,20.1127619 L19.3102656,20.1127619 L29.2358281,20.1127619 L29.8942656,16.0176327 C30.1482344,14.4377687 29.9310156,11.4652517 28.9655625,10.5044898 Z" id="Shape" fill="#694B4B"></path>
            <path d="M20.4991719,15.8327075 L29.5479844,13.5448163 C29.6796719,13.5115102 29.8020625,13.4601361 29.925,13.4098503 C29.8046875,12.2095238 29.5055469,11.0417415 28.9656719,10.504381 L19.3104844,10.504381 L9.6551875,10.504381 C8.689625,11.4652517 8.47240625,14.4376599 8.72648438,16.0175238 L9.38492188,20.1126531 L19.3102656,20.1126531 L19.3102656,15.980517 C19.7109063,15.9807347 20.1108906,15.9308844 20.4991719,15.8327075 Z" id="Shape" fill="#5A4146"></path>
            <path d="M35.8683281,37.5467755 L28.798,35.4259592 L9.86814062,35.4259592 L2.7523125,37.5467755 C1.11879687,38.0345034 0,39.5307755 0,41.2279728 L0,45.0942041 C0,46.1554286 0.864609375,47.0158367 1.93101563,47.0158367 L36.689625,47.0158367 C37.7560312,47.0158367 38.6206406,46.1554286 38.6206406,45.0942041 L38.6206406,41.2279728 C38.6206406,39.5307755 37.5018438,38.0345034 35.8683281,37.5467755 Z" id="Shape" fill="#464655"></path>
            <polygon id="Shape" fill="#D29B6E" points="26.0689844 28.7602721 26.0689844 34.1249524 19.310375 39.6040272 12.5517656 34.1249524 12.5517656 28.7602721"></polygon>
            <g id="Group" transform="translate(0.000000, 32.979592)" fill="#5B5D6E">
                <path d="M27.6006719,0.468897959 C27.2931094,0.0100136054 26.6614687,-0.0977414966 26.2179531,0.233251701 L19.310375,5.38884354 L12.4027969,0.233251701 C11.9593906,-0.0977414966 11.3275312,0.0100136054 11.0200781,0.468897959 L9.6551875,2.50634014 L13.8900781,8.40642177 C14.2120781,8.85496599 14.8464531,8.94258503 15.2788125,8.59820408 L17.5604844,6.78171429 C17.8765781,6.53006803 18.3448125,6.75395918 18.3448125,7.15678912 L18.3448125,14.0360272 L20.2758281,14.0360272 L20.2758281,7.15678912 C20.2758281,6.75395918 20.7440625,6.52995918 21.0601562,6.78171429 L23.3418281,8.59820408 C23.7744062,8.94258503 24.4086719,8.85496599 24.7305625,8.40642177 L28.9654531,2.50634014 L27.6006719,0.468897959 Z" id="Shape"></path>
                <path d="M5.716375,9.32865306 L1.12929688,5.53785034 C0.424921875,6.24152381 0,7.20576871 0,8.24838095 L0,12.1146122 C0,13.1758367 0.864609375,14.0362449 1.93101563,14.0362449 L6.75860937,14.0362449 L6.75860937,11.5430748 C6.75860937,10.6875646 6.37678125,9.87635374 5.716375,9.32865306 Z" id="Shape"></path>
                <path d="M38.6206406,12.1146122 L38.6206406,8.24838095 C38.6206406,7.20228571 38.1933125,6.23444898 37.4846719,5.53023129 L32.9042656,9.3287619 C32.2438594,9.87646259 31.8620312,10.6875646 31.8620312,11.5430748 L31.8620312,14.0362449 L36.689625,14.0362449 C37.7560312,14.0362449 38.6206406,13.1759456 38.6206406,12.1146122 Z" id="Shape"></path>
            </g>
            <path d="M28.9655625,19.1518912 L27.8260937,19.1518912 C27.3659531,19.1518912 26.9695781,18.8286259 26.8792344,18.3795374 L26.3793906,15.8925714 C26.1988125,14.9942857 25.4063906,14.3477551 24.4858906,14.3477551 L14.13475,14.3477551 C13.21425,14.3477551 12.4218281,14.9942857 12.24125,15.8925714 L11.7414062,18.3795374 C11.6511719,18.8286259 11.2549062,19.1518912 10.7945469,19.1518912 L9.6551875,19.1518912 C8.58878125,19.1518912 7.72417187,20.0121905 7.72417187,21.0735238 L7.72417187,22.9951565 C7.72417187,24.056381 8.58878125,24.9167891 9.6551875,24.9167891 L10.1572187,24.9167891 L10.3918281,26.376381 C10.5392656,27.2937143 11.0158125,28.1269116 11.7329844,28.7216327 L15.6081406,31.9351293 C16.1286562,32.3668027 16.7849062,32.6032109 17.462375,32.6032109 L21.1581562,32.6032109 C21.8357344,32.6032109 22.491875,32.3666939 23.0123906,31.9351293 L26.8875469,28.7216327 C27.6047187,28.1269116 28.0811562,27.2937143 28.2287031,26.376381 L28.4633125,24.9167891 L28.9656719,24.9167891 C30.0320781,24.9167891 30.8966875,24.056381 30.8966875,22.9951565 L30.8966875,21.0735238 C30.8965781,20.0121905 30.0319687,19.1518912 28.9655625,19.1518912 Z" id="Shape" fill="#F0C087"></path>
            <path d="M16.4137969,25.9029116 L16.4137969,17.2303673 C16.4137969,16.6997551 16.8461562,16.2694966 17.3793594,16.2694966 L26.4551875,16.2694966 L26.3795,15.8926803 C26.1990312,14.9943946 25.4065,14.3477551 24.486,14.3477551 L14.1348594,14.3477551 C13.2143594,14.3477551 12.4219375,14.9942857 12.2413594,15.8925714 L11.7415156,18.3795374 C11.6512812,18.8286259 11.2550156,19.1518912 10.7946562,19.1518912 L9.6551875,19.1518912 C8.58867187,19.1518912 7.72417187,20.0121905 7.72417187,21.0735238 L7.72417187,22.9951565 C7.72417187,24.0564898 8.58867187,24.9167891 9.6551875,24.9167891 L10.1572187,24.9167891 L10.3918281,26.376381 C10.5392656,27.2937143 11.0157031,28.1269116 11.7329844,28.7216327 L15.6083594,31.9353469 C16.128875,32.3670204 16.7850156,32.6033197 17.4624844,32.6033197 L18.3448125,32.6033197 L16.7110781,27.725932 C16.5142031,27.1381769 16.4137969,26.5225578 16.4137969,25.9029116 Z" id="Shape" fill="#E6AF78"></path>
            <polygon id="Rectangle-path" fill="#464655" points="33.7931563 3.7785034 35.7241719 3.7785034 35.7241719 12.4259048 33.7931563 12.4259048"></polygon>
            <path d="M9.81564062,4.73948299 L8.83476562,10.5933061 C8.7521875,11.0860408 9.06292187,11.559619 9.54942187,11.6826122 L18.5971406,13.9701769 C19.0651562,14.0884898 19.5557031,14.0884898 20.0237187,13.9701769 L29.0725312,11.6822857 C29.558375,11.5594014 29.8686719,11.0864762 29.7863125,10.5943946 L28.8052187,4.73948299 L9.81564062,4.73948299 Z" id="Shape" fill="#5B5D6E"></path>
            <path d="M20.0945937,9.43695238 L29.2987187,7.68609524 L28.805,4.73948299 L9.81564062,4.73948299 L8.83476562,10.5933061 C8.7521875,11.0860408 9.06292187,11.5595102 9.54942187,11.6826122 L18.5970312,13.9701769 C18.8310937,14.0293878 19.070625,14.0588844 19.3102656,14.0588844 L19.3102656,10.3807347 C19.310375,9.91967347 19.6394844,9.52359184 20.0945937,9.43695238 Z" id="Shape" fill="#464655"></path>
            <path d="M18.5941875,0.0723809524 L1.3409375,3.34269388 C0.857609375,3.43434014 0.857609375,4.1229932 1.3409375,4.21463946 L18.5940781,7.48495238 C19.0715,7.5755102 19.5619375,7.5755102 20.0393594,7.48495238 L37.2925,4.21463946 C37.7758281,4.1229932 37.7758281,3.43434014 37.2925,3.34269388 L20.0394688,0.0723809524 C19.5619375,-0.0181768707 19.0716094,-0.0181768707 18.5941875,0.0723809524 Z" id="Shape" fill="#707487"></path>
            <path d="M34.7586094,11.4652517 C33.6920937,11.4652517 32.8275937,12.325551 32.8275937,13.3868844 L32.8275937,16.2693878 C32.8275937,16.8 33.2599531,17.2302585 33.7931562,17.2302585 L35.7241719,17.2302585 C36.257375,17.2302585 36.6897344,16.8 36.6897344,16.2693878 L36.6897344,13.3868844 C36.689625,12.3257687 35.825125,11.4652517 34.7586094,11.4652517 Z" id="Shape" fill="#5B5D6E"></path>
        </g>
    </g>
</svg>