<?xml version="1.0" encoding="UTF-8"?>
<svg width="48px" height="48px" viewBox="0 0 48 48" version="1.1" xmlns="http://www.w3.org/2000/svg" xmlns:xlink="http://www.w3.org/1999/xlink">
    <!-- Generator: Sketch 52.3 (67297) - http://www.bohemiancoding.com/sketch -->
    <title>icons / general / tutor</title>
    <desc>Created with Sketch.</desc>
    <g id="Symbols" stroke="none" stroke-width="1" fill="none" fill-rule="evenodd">
        <g id="icons-/-general-/-tutor" fill-rule="nonzero">
            <g transform="translate(0.000000, 2.000000)">
                <path d="M32.2419375,10.2085395 L33.8623125,10.2085395 L31.26975,1.73433333 C30.9698437,0.75410307 30.069375,0.0851513158 29.04975,0.0851513158 L18.9503437,0.0851513158 C17.9303437,0.0851513158 17.0295938,0.754291667 16.7295937,1.73499342 L14.1376875,10.2085395 L15.7579688,10.2085395 L17.4950625,4.52857895 C17.595,4.20183553 17.8951875,3.97882018 18.2350313,3.97882018 L29.7645,3.97882018 C30.1043438,3.97882018 30.4045313,4.20183553 30.5044688,4.52857895 L32.2419375,10.2085395 Z" id="Shape" fill="#A06E50"></path>
                <path d="M44.90325,42.9148487 L3.09675,42.9148487 C1.38646875,42.9148487 0,41.5202719 0,39.799989 L0,11.7660636 C0,10.0457807 1.38646875,8.65120395 3.09675,8.65120395 L44.9031563,8.65120395 C46.6134375,8.65120395 47.9999063,10.0457807 47.9999063,11.7660636 L47.9999063,39.799989 C48,41.5202719 46.6135313,42.9148487 44.90325,42.9148487 Z" id="Shape" fill="#CD916E"></path>
                <path d="M44.1290625,27.3403618 L3.8709375,27.3403618 C1.7330625,27.3403618 0,25.5971645 0,23.4467873 L0,38.2424649 C0,39.9627478 1.38646875,41.3573246 3.09675,41.3573246 L44.9031563,41.3573246 C46.6134375,41.3573246 47.9999063,39.9627478 47.9999063,38.2424649 L47.9999063,23.4467873 C48,25.5971645 46.2669375,27.3403618 44.1290625,27.3403618 Z" id="Shape" fill="#B67F5F"></path>
                <path d="M3.8709375,30.4553158 L44.1290625,30.4553158 C45.6450938,30.4553158 47.0155313,29.8236118 48,28.810943 L48,25.0043114 C48,27.1546886 46.2669375,28.897886 44.1290625,28.897886 L3.8709375,28.897886 C1.7330625,28.897886 0,27.1546886 0,25.0043114 L0,28.810943 C0.9845625,29.8236118 2.35490625,30.4553158 3.8709375,30.4553158 Z" id="Shape" fill="#A06E50"></path>
                <g id="Group" transform="translate(6.937500, 22.631579)" fill="#F7D291">
                    <path d="M0.03028125,4.70878289 L0.03028125,8.60235746 C0.03028125,9.46245175 0.7235625,10.1597873 1.57865625,10.1597873 C2.43375,10.1597873 3.12703125,9.46245175 3.12703125,8.60235746 L3.12703125,4.70878289 L0.03028125,4.70878289 Z" id="Shape"></path>
                    <path d="M19.3850625,3.15135307 L14.7399375,3.15135307 C13.88475,3.15135307 13.1915625,2.45401754 13.1915625,1.59392325 C13.1915625,0.733734649 13.8848438,0.0364934211 14.7399375,0.0364934211 L19.3850625,0.0364934211 C20.24025,0.0364934211 20.9334375,0.733828947 20.9334375,1.59392325 C20.9334375,2.45411184 20.24025,3.15135307 19.3850625,3.15135307 Z" id="Shape"></path>
                </g>
                <path d="M6.96778125,30.905307 C7.44253125,31.1142719 7.9648125,31.2340307 8.51615625,31.2340307 C9.06759375,31.2340307 9.58978125,31.1142719 10.0645313,30.905307 L10.0645313,27.3404561 L6.96778125,27.3404561 L6.96778125,30.905307 Z" id="Shape" fill="#F0C382"></path>
                <ellipse id="Oval" fill="#FFE1A0" cx="8.51625" cy="27.3408333" rx="2.3225625" ry="2.33614474"></ellipse>
                <path d="M37.9354687,27.3403618 L37.9354687,31.2339364 C37.9354687,32.0940307 38.62875,32.7913662 39.4838437,32.7913662 C40.3389375,32.7913662 41.0322188,32.0940307 41.0322188,31.2339364 L41.0322188,27.3403618 L37.9354687,27.3403618 Z" id="Shape" fill="#F7D291"></path>
                <path d="M37.9354687,30.905307 C38.4102187,31.1142719 38.9325,31.2340307 39.4838437,31.2340307 C40.0351875,31.2340307 40.5574687,31.1142719 41.0322188,30.905307 L41.0322188,27.3404561 L37.9354687,27.3404561 L37.9354687,30.905307 Z" id="Shape" fill="#F0C382"></path>
                <ellipse id="Oval" fill="#FFE1A0" cx="39.48375" cy="27.3408333" rx="2.3225625" ry="2.33614474"></ellipse>
                <g id="Group" transform="translate(7.687500, 8.581140)" fill="#F0C382">
                    <path d="M0.82865625,14.8656469 C0.4010625,14.8656469 0.05446875,14.5170263 0.05446875,14.086932 L0.05446875,0.0699692982 L1.60284375,0.0699692982 L1.60284375,14.086932 C1.60284375,14.5170263 1.25625,14.8656469 0.82865625,14.8656469 Z" id="Shape"></path>
                    <path d="M31.7963437,14.8656469 C31.36875,14.8656469 31.0221562,14.5170263 31.0221562,14.086932 L31.0221562,0.0699692982 L32.5705313,0.0699692982 L32.5705313,14.086932 C32.5705312,14.5170263 32.2239375,14.8656469 31.7963437,14.8656469 Z" id="Shape"></path>
                </g>
                <path d="M31.2332812,1.64258114 C30.9058125,0.714120614 30.0360937,0.0851513158 29.0496562,0.0851513158 L18.9503437,0.0851513158 C17.9637187,0.0851513158 17.0939062,0.714214912 16.76625,1.64258114 L31.2332812,1.64258114 Z" id="Shape" fill="#B67F5F"></path>
                <path d="M44.90325,41.3574189 L3.09675,41.3574189 C1.38646875,41.3574189 0,39.9627478 0,38.2424649 L0,39.7998947 C0,41.5201776 1.38646875,42.9147544 3.09675,42.9147544 L44.9031563,42.9147544 C46.6134375,42.9147544 47.9999063,41.5201776 47.9999063,39.7998947 L47.9999063,38.2424649 C48,39.9627478 46.6135313,41.3574189 44.90325,41.3574189 Z" id="Shape" fill="#A06E50"></path>
            </g>
        </g>
    </g>
</svg>